<?xml version="1.0" encoding="UTF-8"?>
<svg width="172px" height="27px" viewBox="0 0 172 27" version="1.1" xmlns="http://www.w3.org/2000/svg" xmlns:xlink="http://www.w3.org/1999/xlink">
    <!-- Generator: Sketch 63.1 (92452) - https://sketch.com -->
    <title>CalvinKlein Log0</title>
    <desc>Created with Sketch.</desc>
    <defs>
        <polygon id="path-1" points="0 26.7326733 171.278109 26.7326733 171.278109 0.169485149 0 0.169485149"></polygon>
    </defs>
    <g id="Page-1" stroke="none" stroke-width="1" fill="none" fill-rule="evenodd">
        <g id="Logo-and-fonts" transform="translate(-160.000000, -40.000000)">
            <g id="CalvinKlein-Log0" transform="translate(160.000000, 40.000000)">
                <path d="M72.2378317,26.3861376 L74.9386337,26.3861376 L74.9386337,8.4038703 L72.2378317,8.4038703 L72.2378317,26.3861376 Z M72.2038812,5.25850396 L74.9728515,5.25850396 L74.9728515,2.11340495 L72.2038812,2.11340495 L72.2038812,5.25850396 Z" id="Fill-1" fill="#000000"></path>
                <g id="Group-15" transform="translate(0.000000, 0.097761)">
                    <path d="M80.9212188,26.2882693 L78.2204168,26.2882693 L78.2204168,8.30600198 L80.9212188,8.30600198 L80.9212188,11.314497 C81.2631297,10.3229822 82.8358129,7.89565545 86.5620802,7.89565545 C91.5875554,7.89565545 93.9464465,11.5879723 93.9464465,16.1349327 L93.9464465,26.2882693 L91.2116941,26.2882693 L91.2116941,16.203101 C91.2116941,12.8187446 89.3994861,10.4598535 86.1177832,10.4598535 C82.8700307,10.4598535 80.9212188,12.8871802 80.9212188,16.339705 L80.9212188,26.2882693 Z" id="Fill-2" fill="#000000"></path>
                    <polygon id="Fill-4" fill="#000000" points="109.638606 14.5279782 106.390853 18.1860772 106.390853 26.2882158 103.416844 26.2882158 103.416844 0.648106931 106.390853 0.648106931 106.390853 14.3226713 118.424566 0.648106931 121.980012 0.648106931 111.689804 12.2375228 121.980012 26.2882158 118.561438 26.2882158"></polygon>
                    <mask id="mask-2" fill="white">
                        <use xlink:href="#path-1"></use>
                    </mask>
                    <g id="Clip-7"></g>
                    <polygon id="Fill-6" fill="#000000" mask="url(#mask-2)" points="123.518851 26.2883762 126.219653 26.2883762 126.219653 0.169752475 123.518851 0.169752475"></polygon>
                    <path d="M131.689399,15.5876347 L144.030805,15.5876347 C143.483854,12.8871 141.466874,10.391605 137.877211,10.391605 C134.390468,10.391605 132.133963,13.023704 131.689399,15.5876347 M137.945647,26.6985356 C132.680914,26.6985356 128.783557,22.6303574 128.783557,17.2971891 C128.783557,11.9982386 132.715132,7.89584257 137.877211,7.89584257 C143.142211,7.89584257 147.073518,12.1008921 146.936647,17.9807436 L131.51831,17.9807436 C131.723617,21.4335356 134.35625,24.1688228 137.945647,24.1688228 C141.53531,24.1688228 143.278815,22.0149713 143.996587,20.5107238 L146.697656,20.5107238 C146.013835,22.972001 143.346983,26.6985356 137.945647,26.6985356" id="Fill-8" fill="#000000" mask="url(#mask-2)"></path>
                    <path d="M149.569574,26.2883762 L152.270376,26.2883762 L152.270376,8.30610891 L149.569574,8.30610891 L149.569574,26.2883762 Z M149.535624,5.16074257 L152.304594,5.16074257 L152.304594,2.01564356 L149.535624,2.01564356 L149.535624,5.16074257 Z" id="Fill-9" fill="#000000" mask="url(#mask-2)"></path>
                    <path d="M158.252908,26.2882693 L155.552106,26.2882693 L155.552106,8.30600198 L158.252908,8.30600198 L158.252908,11.314497 C158.594819,10.3229822 160.167502,7.89565545 163.894037,7.89565545 C168.919245,7.89565545 171.278136,11.5879723 171.278136,16.1349327 L171.278136,26.2882693 L168.543116,26.2882693 L168.543116,16.203101 C168.543116,12.8187446 166.731443,10.4598535 163.449205,10.4598535 C160.20172,10.4598535 158.252908,12.8871802 158.252908,16.339705 L158.252908,26.2882693 Z" id="Fill-10" fill="#000000" mask="url(#mask-2)"></path>
                    <path d="M3.07690396,13.5024059 C3.07690396,19.4849109 7.3843396,23.9634356 13.025201,23.9634356 C18.2899337,23.9634356 20.8880822,20.7156832 21.7087752,19.1090495 L24.6830525,19.1090495 C23.930795,21.5703267 20.3753495,26.7326733 13.025201,26.7326733 C5.60661683,26.7326733 -2.67326733e-05,21.1260297 -2.67326733e-05,13.4681881 C-2.67326733e-05,5.913 5.67505248,0.20370297 13.025201,0.20370297 C20.3753495,0.20370297 23.930795,5.26339604 24.7512208,7.89576238 L21.6745574,7.89576238 C20.7514782,6.22069307 18.1872802,2.97294059 13.025201,2.97294059 C7.3843396,2.97294059 3.07690396,7.45146535 3.07690396,13.5024059" id="Fill-11" fill="#000000" mask="url(#mask-2)"></path>
                    <path d="M41.947895,17.2970554 C41.947895,13.4339168 39.2128752,10.4596396 35.4866079,10.4596396 C31.7261228,10.4596396 28.991103,13.399699 28.991103,17.2970554 C28.991103,21.1601941 31.7261228,24.1344713 35.4866079,24.1344713 C39.2128752,24.1344713 41.947895,21.1601941 41.947895,17.2970554 M35.3839545,26.698402 C30.2560931,26.698402 26.2218653,22.6644416 26.2218653,17.2970554 C26.2218653,11.9296693 30.2560931,7.89570891 35.3839545,7.89570891 C39.4524,7.89570891 41.3667267,10.4938574 41.9136772,11.6904119 L41.9136772,8.30605545 L44.6144792,8.30605545 L44.6144792,26.2883228 L41.9136772,26.2883228 L41.9136772,22.903699 C41.3325089,24.1344713 39.4524,26.698402 35.3839545,26.698402" id="Fill-12" fill="#000000" mask="url(#mask-2)"></path>
                    <polygon id="Fill-13" fill="#000000" mask="url(#mask-2)" points="47.8966634 26.2883762 50.5974653 26.2883762 50.5974653 0.169752475 47.8966634 0.169752475"></polygon>
                    <polygon id="Fill-14" fill="#000000" mask="url(#mask-2)" points="61.3320772 23.5191921 67.0413743 8.30589505 70.0153842 8.30589505 63.0416317 26.2884297 59.6225228 26.2884297 52.6487703 8.30589505 55.6227802 8.30589505"></polygon>
                </g>
            </g>
        </g>
    </g>
</svg>