<svg width="26" height="18" viewBox="0 0 26 18" fill="none" xmlns="http://www.w3.org/2000/svg">
<path d="M6.26087 16.8261C7.34143 16.8261 8.2174 15.9502 8.2174 14.8696C8.2174 13.7891 7.34143 12.9131 6.26087 12.9131C5.18032 12.9131 4.30435 13.7891 4.30435 14.8696C4.30435 15.9502 5.18032 16.8261 6.26087 16.8261Z" fill="black"/>
<path d="M13.6957 1.56519H2.73913C2.42779 1.56519 2.1292 1.68887 1.90905 1.90902C1.6889 2.12917 1.56522 2.42776 1.56522 2.7391V13.6956C1.56522 14.007 1.6889 14.3056 1.90905 14.5257C2.1292 14.7459 2.42779 14.8695 2.73913 14.8695H3.52174C3.52174 14.1431 3.81032 13.4464 4.32401 12.9327C4.8377 12.419 5.53441 12.1304 6.26087 12.1304C6.98733 12.1304 7.68404 12.419 8.19773 12.9327C8.71141 13.4464 9 14.1431 9 14.8695H14.8696V2.7391C14.8696 2.42776 14.7459 2.12917 14.5257 1.90902C14.3056 1.68887 14.007 1.56519 13.6957 1.56519Z" fill="black"/>
<path d="M19.5652 16.8261C20.6458 16.8261 21.5217 15.9502 21.5217 14.8696C21.5217 13.7891 20.6458 12.9131 19.5652 12.9131C18.4847 12.9131 17.6087 13.7891 17.6087 14.8696C17.6087 15.9502 18.4847 16.8261 19.5652 16.8261Z" fill="black"/>
<path d="M23.2435 7.77392L20.7 4.38265C20.5907 4.23686 20.4489 4.11853 20.2859 4.03702C20.1229 3.95552 19.9431 3.91309 19.7609 3.91309H15.6522V14.8696H16.8261C16.8261 14.1431 17.1147 13.4464 17.6284 12.9327C18.142 12.4191 18.8388 12.1305 19.5652 12.1305C20.2917 12.1305 20.9884 12.4191 21.5021 12.9327C22.0158 13.4464 22.3043 14.1431 22.3043 14.8696C22.6157 14.8696 22.9143 14.7459 23.1344 14.5258C23.3546 14.3056 23.4783 14.007 23.4783 13.6957V8.47829C23.4782 8.22428 23.3959 7.97713 23.2435 7.77392V7.77392ZM21.5217 8.21466C21.5217 8.31918 21.4802 8.41941 21.4063 8.49331C21.3324 8.56721 21.2322 8.60873 21.1277 8.60874H17.6115C17.507 8.60873 17.4067 8.56721 17.3328 8.49331C17.2589 8.41941 17.2174 8.31918 17.2174 8.21466V5.48101C17.2174 5.42926 17.2276 5.37802 17.2474 5.33022C17.2672 5.28241 17.2962 5.23897 17.3328 5.20238C17.3694 5.16579 17.4129 5.13677 17.4607 5.11698C17.5085 5.09718 17.5597 5.08699 17.6115 5.087L19.5638 5.08695C19.625 5.08694 19.6854 5.10118 19.7401 5.12854C19.7948 5.1559 19.8424 5.19563 19.8791 5.24458L21.4429 7.32974C21.4941 7.39795 21.5217 7.48092 21.5217 7.56619V8.21466Z" fill="black"/>
</svg>
