<svg id="Layer_1" data-name="Layer 1" xmlns="http://www.w3.org/2000/svg" viewBox="0 0 395.92 496.26"><defs><style>.cls-1{fill:#185082;}.cls-2{fill:#fff;}.cls-3{fill:#483e38;}.cls-4{fill:#35a8e0;}.cls-5{fill:#add0e4;}.cls-6{fill:#c6e8fb;}.cls-7{fill:#f9f9f9;}.cls-8{fill:#e8c3ba;}</style></defs><g id="Group_272" data-name="Group 272"><g id="Group_258" data-name="Group 258"><g id="Group_257" data-name="Group 257"><path id="Path_276" data-name="Path 276" class="cls-1" d="M467.55,433.49h5.06a162.9,162.9,0,0,0,21.36-2.4h0l33.2-8.55,15.74-9.21,9.21-8.07A142.71,142.71,0,0,0,594.54,208h0a142.71,142.71,0,0,0-197.31-42.42h0a141.46,141.46,0,0,0-14.42,10.65,144.46,144.46,0,0,0-31.95,32.87A142,142,0,0,0,327,268.67a56.17,56.17,0,0,1-.89,6.72,143,143,0,0,0,126.6,157.08A121.41,121.41,0,0,0,467.55,433.49Z" transform="translate(-314.08 -136.86)"/><path id="Path_277" data-name="Path 277" class="cls-2" d="M467.53,159.1a94.58,94.58,0,0,1,14.17.74A131.57,131.57,0,0,1,598.75,304.47h0a131.57,131.57,0,0,1-52.6,92l-9.2,7.64-13.63,8-31.4,8a140.45,140.45,0,0,1-19.61,2.21h-4.79a90.9,90.9,0,0,1-14.09-.74,131.87,131.87,0,0,1-116.37-145,15.76,15.76,0,0,1,.82-6.17A131.77,131.77,0,0,1,467.53,159.1m0-22.18A153.19,153.19,0,0,0,315.88,266.74,54.2,54.2,0,0,1,315,274,154,154,0,0,0,451.44,443.71a163.15,163.15,0,0,0,16.39.89h5.53a157.9,157.9,0,0,0,22.92-2.94h1.47l31.3-8,2.94-1.19,2.77-1.56,13.71-7.65,1.66-1,1.38-1.29,8.56-7.18A153.47,153.47,0,0,0,591.47,199h0l-.09-.12a54.64,54.64,0,0,0-3.59-4.6A153.68,153.68,0,0,0,468.1,136.86Z" transform="translate(-314.08 -136.86)"/></g><path id="Path_278" data-name="Path 278" class="cls-3" d="M709.92,380.45,647,407.9l-2.69,1a41.31,41.31,0,0,0-27.62-14.28,95.75,95.75,0,0,0-14.46-.89,139.07,139.07,0,0,0-49,9.2h-1.1l-53.31,34.9-1.56,1.47-1.29,1.29c-15.47,15.47-47.24,47.05-33.42,78.64-1.19,21.36,15.38,42.9,22.92,51.55a58.5,58.5,0,0,0,6.91,6.63C497,593.36,513,621.54,568,621.54A126.49,126.49,0,0,0,582.2,621a71.39,71.39,0,0,0,38.86-14.18A45.22,45.22,0,0,0,638.55,577a76.1,76.1,0,0,0,7.28-3.14,122.6,122.6,0,0,0,29.09,4,52.38,52.38,0,0,0,31.3-8.66l3.68-2.63Z" transform="translate(-314.08 -136.86)"/><path id="Path_279" data-name="Path 279" class="cls-2" d="M709.92,551.4l-9.87,8.43-.64.56A42.13,42.13,0,0,1,674.64,567a118.91,118.91,0,0,1-30.39-4.69,79.49,79.49,0,0,1-16.94,6.9,32.92,32.92,0,0,1-13.54,29.29,61.13,61.13,0,0,1-32.68,11.66c-4.69,0-9.2.55-13.35.55-51.46,0-63.15-26.6-65.83-39.41a54.59,54.59,0,0,1-8.38-7.55c-5.61-6.44-22.83-27.62-20-46-13.53-25.23,15.56-54.32,29.92-68.69l1.3-1.29.73-.73,51.38-33.61A128.41,128.41,0,0,1,602,405a74.15,74.15,0,0,1,12.8.83,29.08,29.08,0,0,1,25.31,18.42,29.23,29.23,0,0,1,10.31-5.44L709.89,394Zm0-181.91L646.67,396A54.25,54.25,0,0,0,618,383.8a103.33,103.33,0,0,0-15.92-1,150.83,150.83,0,0,0-52.93,9.87l-2.31.9-2,1.29-51.38,33.7-1.84,1.19-1.47,1.47h0l-.83.9L488,433.29a189.39,189.39,0,0,0-28.55,34.34,60.21,60.21,0,0,0-7.92,53.83c0,23.48,15.56,45.4,25.69,57,1.75,1.93,3.68,3.86,5.61,5.7a65.93,65.93,0,0,0,19.74,28.64A98.85,98.85,0,0,0,568.18,633a120.84,120.84,0,0,0,15.1-.64,82.85,82.85,0,0,0,45-16.67A58.94,58.94,0,0,0,648.2,586.1a132.45,132.45,0,0,0,26.91,3.13,62.82,62.82,0,0,0,34.89-9Z" transform="translate(-314.08 -136.86)"/><path id="Path_280" data-name="Path 280" class="cls-4" d="M543.92,260.18l21-18.41a104.94,104.94,0,0,1,11.23,79.45,29.42,29.42,0,0,1-16.76,22.38c0-1.94.56-3.87.74-5.81A128.88,128.88,0,0,0,543.92,260.18Z" transform="translate(-314.08 -136.86)"/><path id="Path_281" data-name="Path 281" class="cls-4" d="M427,194.37l24.22-9.87a142.64,142.64,0,0,1,25,.83,131,131,0,0,1,31.58,8.19,117.15,117.15,0,0,1,37.29,23.75L522.5,232.09a128.88,128.88,0,0,0-77.43-36.82h-4.42Z" transform="translate(-314.08 -136.86)"/><path id="Path_282" data-name="Path 282" class="cls-4" d="M537.88,404.93l6.91,12.9,10.4,19.24,12.43,23.11a35.06,35.06,0,0,0,0,15.19,45,45,0,0,0-8.47,1.47L541.84,444.7l-10.49-19.24-6.91-12.61Z" transform="translate(-314.08 -136.86)"/><path id="Path_283" data-name="Path 283" class="cls-5" d="M495.44,246.8A98.44,98.44,0,0,1,531,333.34a91.82,91.82,0,0,1-4.42,20.07A55.28,55.28,0,0,1,493,385.36a96.11,96.11,0,0,1-115.27-57.73,130.5,130.5,0,0,0,55.89-50C445.92,254.25,482.88,248.16,495.44,246.8Z" transform="translate(-314.08 -136.86)"/><path id="Path_284" data-name="Path 284" class="cls-6" d="M373.46,267.67a63.34,63.34,0,0,1,50-43,97.81,97.81,0,0,1,71.71,21.89c-12.15,1.39-49.07,7.56-62,30.85a129.28,129.28,0,0,1-55.89,50,96.78,96.78,0,0,1-6.07-45.48A93.84,93.84,0,0,1,373.46,267.67Z" transform="translate(-314.08 -136.86)"/><path id="Path_285" data-name="Path 285" class="cls-7" d="M487.66,372.1h0c35.16-17.67,31.4-62.14,24.49-82.87a6.63,6.63,0,0,0-8.43-4.1h0l-.13.05a6.71,6.71,0,0,0-4.14,8.19h0c.64,2,15.83,50.17-17.78,67a6.64,6.64,0,0,0-3,8.87h0l.18.34a6.73,6.73,0,0,0,8.47,3.13Z" transform="translate(-314.08 -136.86)"/><path id="Path_286" data-name="Path 286" class="cls-1" d="M453.84,421.69a132.14,132.14,0,0,0,38.49-1.56l34.8,73.65a11.45,11.45,0,0,1,4-4.6,96.73,96.73,0,0,1,27.62-13l-35-64.08,13.63-8,29.74,55.24a32.12,32.12,0,0,1,6.72-13.62,12.26,12.26,0,0,1,1.56-1.66l-29.1-47.69a131.57,131.57,0,1,0-208.34-126c0,2.12-.65,4.14-.83,6.28A131.87,131.87,0,0,0,453.84,421.69Zm-9.2-226.58a118,118,0,0,0-18.42-.65,103.46,103.46,0,0,1,52.66-7.92c57.91,6.54,114,61.77,96.59,134.51a29.29,29.29,0,0,1-16.76,22.38c0-1.94.56-3.78.73-5.71A129.72,129.72,0,0,0,444.72,195Zm-80.93,84.42a109.52,109.52,0,0,1,2.94-15.65,69,69,0,0,1,54.88-46.78,107,107,0,0,1,116.3,96.77h0a106.75,106.75,0,0,1-4.9,43.17,60.47,60.47,0,0,1-36.82,34.71A104.69,104.69,0,0,1,367,319.33h0a104.79,104.79,0,0,1-3.28-39.79Z" transform="translate(-314.08 -136.86)"/><path id="Path_287" data-name="Path 287" class="cls-8" d="M618.31,548.6a28.55,28.55,0,0,0-6.07-36.09,27,27,0,0,0,16.48-4.79c13.46-9.76,14.82-30.67,14.82-48.45a65,65,0,0,1,9.21,67.13A55.29,55.29,0,0,1,618.31,548.6Z" transform="translate(-314.08 -136.86)"/><path id="Path_288" data-name="Path 288" class="cls-8" d="M599.48,581.74A40.38,40.38,0,0,1,579,588.55a90.51,90.51,0,0,1-39.68-4h3.87A122.41,122.41,0,0,0,599.21,568h1.29a3.4,3.4,0,0,1,4.14,1.84C606.39,571.89,605.47,576.86,599.48,581.74Z" transform="translate(-314.08 -136.86)"/><path id="Path_289" data-name="Path 289" class="cls-8" d="M587.91,549.42a99.44,99.44,0,0,1-45.48,13.26,45.26,45.26,0,0,1-33-13.45c-1.47-1.71-2.86-3.46-4.15-5.25a71.56,71.56,0,0,0,28.64,6.54,46.41,46.41,0,0,0,15.83-2.69,119.36,119.36,0,0,0,40.7-21.53,11.23,11.23,0,0,1,8.07,4.14C603.66,539.21,587.91,549.33,587.91,549.42Z" transform="translate(-314.08 -136.86)"/><path id="Path_290" data-name="Path 290" class="cls-8" d="M611.06,426.72h.64c4.79.55,10.13,1.1,10.13,18.41v5.71c0,11,0,33.88-6.44,38.67-2.49,1.83-7.55,0-10.41-.65a27.63,27.63,0,0,1-15.65-17.05,11.94,11.94,0,0,1,2-11.6,10.85,10.85,0,0,0-15.18-15.45l-8.08-13.17A96.47,96.47,0,0,1,611.06,426.72Z" transform="translate(-314.08 -136.86)"/><path id="Path_291" data-name="Path 291" class="cls-8" d="M527.73,494.6a10.9,10.9,0,0,0,15.84,13.62,56.81,56.81,0,0,1,26.6-11.05h0a16.49,16.49,0,0,1,10.41,3.13v1.29a13,13,0,0,1-3,6.28v.65a95.29,95.29,0,0,1-35.08,18.41c-13.54,4.88-39.41-5.15-49.44-19.24-6.91-9.76,11.42-29.92,22-40.6l12.89,27.62Z" transform="translate(-314.08 -136.86)"/></g></g></svg>