<?xml version="1.0" encoding="UTF-8"?>
<svg width="32px" height="32px" viewBox="0 0 32 32" version="1.1" xmlns="http://www.w3.org/2000/svg" xmlns:xlink="http://www.w3.org/1999/xlink">
    <!-- Generator: Sketch 63.1 (92452) - https://sketch.com -->
    <title>Sales Expert</title>
    <desc>Created with Sketch.</desc>
    <g id="Page-1" stroke="none" stroke-width="1" fill="none" fill-rule="evenodd">
        <g id="Logo-and-fonts" transform="translate(-160.000000, -1264.000000)">
            <g id="Sales-Expert" transform="translate(160.000000, 1264.000000)">
                <circle id="Oval-Copy-2" fill="#FFFFFF" cx="16" cy="16" r="16"></circle>
                <path d="M16,7 C20.74,7 25,10.73 25,16.22 C25.59,16.53 26,17.14 26,17.84 L26,17.84 L26,20.14 C26,20.86 25.59,21.47 25,21.78 L25,21.78 L25,23 C25,24.1 24.1,25 23,25 L23,25 L15,25 L15,23 L23,23 L23,15.9 C23,12.03 19.87,8.9 16,8.9 C12.13,8.9 9,12.03 9,15.9 L9,15.9 L9,22 L8,22 C6.9,22 6,21.1 6,20 L6,20 L6,18 C6,17.26 6.4,16.62 7,16.28 C7,10.65 11.31,7 16,7 Z M13,16 C13.5522847,16 14,16.4477153 14,17 C14,17.5522847 13.5522847,18 13,18 C12.4477153,18 12,17.5522847 12,17 C12,16.4477153 12.4477153,16 13,16 Z M19,16 C19.5522847,16 20,16.4477153 20,17 C20,17.5522847 19.5522847,18 19,18 C18.4477153,18 18,17.5522847 18,17 C18,16.4477153 18.4477153,16 19,16 Z M16.05,10 C19.04,10 21.52,12.18 22,15.03 C18.88,15 16.19,13.19 14.88,10.56 C14.35,13.24 13.02,10 16.05,10 Z" id="Combined-Shape" fill="#222222" fill-rule="nonzero"></path>
            </g>
        </g>
    </g>
</svg>