<svg xmlns="http://www.w3.org/2000/svg" viewBox="0 0 231.31 234.02"><defs><style>.cls-1,.cls-2{fill:none;stroke:#00285e;stroke-linejoin:round;stroke-width:8px;}.cls-2{stroke-linecap:round;}</style></defs><title>a1aAsset 5</title><g id="Layer_2" data-name="Layer 2"><g id="Layer_1-2" data-name="Layer 1"><path class="cls-1" d="M22.16,230v-41.7A18.16,18.16,0,0,1,4,170.16V54.33A18.16,18.16,0,0,1,22.16,36.17H177.75A18.16,18.16,0,0,1,195.9,54.33V170.16a18.16,18.16,0,0,1-18.15,18.16H65.41Z"/><path class="cls-1" d="M35.41,36.17v-14A18.16,18.16,0,0,1,53.57,4H209.15a18.16,18.16,0,0,1,18.16,18.16V138a18.16,18.16,0,0,1-18.16,18.16H195.9"/><line class="cls-2" x1="28.4" y1="69.18" x2="171.51" y2="69.18"/><line class="cls-2" x1="28.4" y1="112.45" x2="171.51" y2="112.45"/><line class="cls-2" x1="28.4" y1="155.72" x2="171.51" y2="155.72"/></g></g></svg>