<svg xmlns="http://www.w3.org/2000/svg" viewBox="0 0 223.75 223.75"><defs><style>.cls-1,.cls-2{fill:none;stroke:#00285e;stroke-linejoin:round;stroke-width:8px;}.cls-2{stroke-linecap:round;}</style></defs><title>a1aaAsset 6</title><g id="Layer_2" data-name="Layer 2"><g id="Layer_1-2" data-name="Layer 1"><path class="cls-1" d="M49.2,174.54c56.48,56.48,91.25,44,91.25,44l25.32-25.32L128.41,155.9s-11.88,12.5-13.29,13.28-9.84,9.23-11.41,9.54-3,.16-10.78-3.91-24.35-19.65-24.35-19.65S53,138.64,48.93,130.82,44.71,121.6,45,120s8.75-10,9.53-11.41S67.85,95.33,67.85,95.33L30.49,58,5.16,83.3S-7.28,118.07,49.2,174.54Z"/><path class="cls-2" d="M219.75,119.71A115.72,115.72,0,0,0,104,4"/><path class="cls-2" d="M187.27,129.05A92.57,92.57,0,0,0,94.7,36.47"/><path class="cls-2" d="M155.78,137.4A69.43,69.43,0,0,0,86.35,68"/></g></g></svg>