<?xml version="1.0" encoding="utf-8"?>
<!-- Generator: Adobe Illustrator 22.0.0, SVG Export Plug-In . SVG Version: 6.00 Build 0)  -->
<svg version="1.1" id="Layer_1" xmlns="http://www.w3.org/2000/svg" xmlns:xlink="http://www.w3.org/1999/xlink" x="0px" y="0px"
	 viewBox="0 0 555 555" style="enable-background:new 0 0 555 555;" xml:space="preserve">
<style type="text/css">
	.st0{fill:#009ADB;}
	.st1{fill:#808184;}
	.st2{fill:#FFFFFF;}
	.st3{fill:#008CC1;}
</style>
<g>
	<path class="st0" d="M277.5,97.5c-99.4,0-180,80.6-180,180c0,99.4,80.6,180,180,180s180-80.6,180-180
		C457.5,178.1,376.9,97.5,277.5,97.5z M401.4,277.2c0,40.6-32.9,73.5-73.5,73.5h-42.2c-4.7,0-8.4-3.8-8.4-8.4v-65.1
		c0-24.6-20-44.6-44.6-44.6c-24.6,0-44.6,20-44.6,44.6h0v65.1c0,4.7-3.8,8.4-8.4,8.4h-12.1c-4.7,0-8.4-3.8-8.4-8.4v-65.1
		c0-40.6,32.9-73.5,73.5-73.5c40.6,0,73.5,32.9,73.5,73.5v44.6h21.8c24.6,0,44.6-20,44.6-44.6h0v-65.1c0-4.7,3.8-8.4,8.4-8.4H393
		c4.7,0,8.4,3.8,8.4,8.4c0,0.2,0,0.3,0,0.5L401.4,277.2L401.4,277.2z"/>
</g>
</svg>
