<svg height="23" viewBox="0 0 92 23" width="92" xmlns="http://www.w3.org/2000/svg"><g fill="none" fill-rule="evenodd"><path d="m31.0944309 11.521456c.6801178 0 1.3202286.1325825 1.9203325.3972253.5995775.2641209 1.1301956.6248077 1.5902753 1.0810165.4600796.4562088.8233004.9818407 1.0901887 1.5768956.2668884.595055.4000693 1.2297802.4000693 1.9041758v4.9587912h-1.0001732v-4.9587912c0-.5418132-.1068606-1.0543956-.3200554-1.5372252-.2137212-.4828297-.5000865-.903022-.8601489-1.260055-.3600623-.356511-.7838199-.640989-1.2702199-.8529121-.4869264-.2108791-1.003858-.3173626-1.5502684-.3173626-.5469368 0-1.0638684.1064835-1.5507948.3173626-.4869264.2119231-.9096312.4964011-1.2696935.8529121-.3605888.357033-.6474805.7772253-.8606753 1.260055-.2131948.4828296-.3200554.995412-.3200554 1.5372252v4.9587912h-1.0001732v-4.9587912c0-.6743956.1305489-1.3091208.3905939-1.9041758.2595186-.5950549.6127377-1.1206868 1.0601836-1.5768956.4463931-.4562088.9728-.8168956 1.5797472-1.0810165.6069472-.2646428 1.263903-.3972253 1.9708675-.3972253m11.2019394 8.9263462c.5464104 0 1.063342-.1059615 1.5507948-.3173626.4864-.2114011.9101576-.4958792 1.2702199-.8529121.3600624-.357033.6464277-.7772253.8596225-1.260055.2131948-.4823077.3205818-.9943681.3205818-1.5367033 0-.5418132-.107387-1.0543956-.3205818-1.5372252-.2131948-.4828297-.4995601-.903022-.8596225-1.260055-.3600623-.356511-.7838199-.640989-1.2702199-.8529121-.4874528-.2108791-1.0043844-.3173626-1.5507948-.3173626-.5469368 0-1.063342.1064835-1.5502684.3173626-.4869264.2119231-.9101576.4964011-1.2702199.8529121-.3600624.357033-.6474805.7772253-.8601489 1.260055-.2137212.4828296-.3200554.995412-.3200554 1.5372252 0 .5423352.1063342 1.0543956.3200554 1.5367033.2126684.4828297.5000865.903022.8601489 1.260055.3600623.3570329.7832935.641511 1.2702199.8529121s1.0033316.3173626 1.5502684.3173626zm0-8.9263462c.6932779 0 1.3470753.1289286 1.9603394.3873077.6137905.2573352 1.1433558.6081044 1.5902753 1.0512638.4469195.4426373.8001385.9687912 1.0601836 1.5768956.2605714.6081044.3900675 1.2564011.3900675 1.9438461v4.9587912h-.9996468v-1.9835164c-.4537627.5950549-1.0343896 1.0747527-1.7408277 1.4385714-.7069645.3632967-1.4602528.544945-2.2603913.544945-.7069645 0-1.3633939-.1289285-1.9703411-.3867857-.6069472-.2573351-1.1338805-.6081044-1.5802736-1.0512637-.4469195-.4431594-.8001386-.9651374-1.0601836-1.566978-.260045-.6018407-.3900675-1.2527473-.3900675-1.9537638 0-.687445.1300225-1.3357417.3900675-1.9438461s.6132641-1.1342583 1.0601836-1.5768956c.4463931-.4431594.9733264-.7939286 1.5802736-1.0512638.6069472-.2583791 1.2633766-.3873077 1.9703411-.3873077zm11.4046061 0c.6801177 0 1.3202285.1289286 1.9203324.3873077.6006303.2573352 1.1301957.6081044 1.5902753 1.0512638.4600797.4426373.8238269.9687912 1.0901888 1.5768956.2668883.6081044.4005957 1.2564011.4005957 1.9438461h-1.0006996c0-.5418132-.1068606-1.0543956-.3200554-1.5372252-.2137212-.4828297-.5000866-.903022-.8601489-1.260055-.3600624-.356511-.7838199-.640989-1.2696935-.8529121-.4874529-.2108791-1.003858-.3173626-1.5507948-.3173626s-1.063342.1064835-1.5502684.3173626c-.4869264.2119231-.9101576.4964011-1.27022.8529121-.3600623.357033-.6469541.7772253-.8601489 1.260055-.2137212.4828296-.3200554.995412-.3200554 1.5372252v4.9587912h-1.0001731v-4.9587912c0-.687445.1300225-1.3357417.3900675-1.9438461s.6132641-1.1342583 1.0601835-1.5768956c.4463931-.4431594.9733264-.7939286 1.5802736-1.0512638.6064208-.2583791 1.2633767-.3873077 1.9703412-.3873077m13.9497835 0v4.9593132c0 .5423352-.1068606 1.0543956-.319529 1.5367033-.2137212.4828297-.500613.903022-.8601489 1.260055-.3600624.3570329-.7838199.641511-1.2702199.8529121-.4874528.2114011-1.003858.3173626-1.5502684.3173626l-2.7683741-.0078297v-8.9185165h-.9801696v9.9181044h3.7485437c.6795913 0 1.3197021-.1289285 1.9203324-.3867857.6001039-.2573351 1.1301957-.6081044 1.589749-1.0512637.460606-.4431594.8238268-.9651374 1.0901887-1.566978.2674147-.6018407.4005957-1.2527473.4005957-1.9537638v-4.9593132zm7.2012468 8.9263462c.5464103 0 1.063342-.1059615 1.5502684-.3173626s.9101575-.4958792 1.2702199-.8529121c.3600623-.357033.6469541-.7772253.8601489-1.260055.2131948-.4823077.3200554-.9943681.3200554-1.5367033 0-.5418132-.1068606-1.0543956-.3200554-1.5372252-.2131948-.4828297-.5000866-.903022-.8601489-1.260055-.3600624-.356511-.7832935-.640989-1.2702199-.8529121-.4869264-.2108791-1.0038581-.3173626-1.5502684-.3173626-.5469368 0-1.0638684.1064835-1.5507948.3173626-.4869265.2119231-.9096312.4964011-1.27022.8529121-.3595359.357033-.6464277.7772253-.8596225 1.260055-.2137212.4828296-.3205818.995412-.3205818 1.5372252 0 .5423352.1068606 1.0543956.3205818 1.5367033.2131948.4828297.5000866.903022.8596225 1.260055.3605888.3570329.7832935.641511 1.27022.8529121.4869264.2114011 1.003858.3173626 1.5507948.3173626zm0-8.9263462c.6932779 0 1.3465489.1289286 1.9603394.3873077.613264.2573352 1.1433558.6081044 1.5902753 1.0512638.4469195.4426373.8001385.9687912 1.0601835 1.5768956.2600451.6081044.3900676 1.2564011.3900676 1.9438461v4.9587912h-1.0001732v-1.9835164c-.4532364.5950549-1.0338632 1.0747527-1.7403013 1.4385714-.7069645.3632967-1.4602528.544945-2.2603913.544945-.7069645 0-1.3639204-.1289285-1.9708676-.3867857-.6069472-.2573351-1.1333541-.6081044-1.5797472-1.0512637-.4469194-.4431594-.8001385-.9651374-1.0601835-1.566978-.260045-.6018407-.3905939-1.2527473-.3905939-1.9537638 0-.687445.1305489-1.3357417.3905939-1.9438461s.6132641-1.1342583 1.0601835-1.5768956c.4463931-.4431594.9728-.7939286 1.5797472-1.0512638.6069472-.2583791 1.2639031-.3873077 1.9708676-.3873077zm11.404606 0c.6801178 0 1.3202286.1289286 1.9198061.3873077.6006303.2573352 1.1307221.6081044 1.5902753 1.0512638.4600797.4426373.8238268.9687912 1.0907152 1.5768956.2668883.6081044.4000692 1.2564011.4000692 1.9438461h-1.0001731c0-.5418132-.1068606-1.0543956-.3200554-1.5372252-.2137213-.4828297-.5000866-.903022-.860149-1.260055-.3600623-.356511-.7838199-.640989-1.2702199-.8529121-.4869264-.2108791-1.003858-.3173626-1.5502684-.3173626-.5469368 0-1.0638684.1064835-1.5507948.3173626-.4869264.2119231-.9101576.4964011-1.2702199.8529121-.3595359.357033-.6469541.7772253-.8596225 1.260055-.2142476.4828296-.3205818.995412-.3205818 1.5372252v4.9587912h-.9996468v-4.9587912c0-.687445.1294961-1.3357417.3895411-1.9438461.2600451-.6081044.6137905-1.1342583 1.0601836-1.5768956.4463931-.4431594.9738528-.7939286 1.5802736-1.0512638.6069472-.2583791 1.2633766-.3873077 1.9708675-.3873077" fill="#999"/><path d="m18.6286008 12.4314451c-.6565731 1.5529448-2.2103106 2.6836033-3.9094461 2.7539844-.9486732.0397522-1.9038664.0065167-2.8531915.0065167-.2627597 0-.4766186-.223525-.4766186-.4835438v-3.348965c0-.2548054.0117361-.5128693-.0019561-.7676748-.0469446-.85956111-.5144351-1.70739208-1.2577254-2.16161052-.75828649-.46269023-1.73303998-.60540736-2.55391935-.201368-.75959051.37341056-1.36726293 1.02899701-1.55699756 1.87161452-.07758907.3453885-.06976496.6894737-.06976496 1.0407272v1.3841607 2.1902843c0 .2626256-.2236391.4763754-.4837907.4763754h-.80001508c-.26275963 0-.47661859-.223525-.47661859-.4835438v-2.1264201c0-.763113-.071721-1.5698884.02542835-2.3297431.22755115-1.7784248 1.47940848-3.3926272 3.25352504-3.85792414 1.81649715-.47702711 3.72883965.21635656 4.82812685 1.73802091.5450795.75398958.8541318 1.65199963.8541318 2.58520023v.8269773 1.8826931c.357301.0013033.7146019.0032584 1.0719029.0045617.4681424.0013034.9330249-.0215053 1.3626988-.2326484.9943138-.4887573 1.6267626-1.4252163 1.6267626-2.5441446v-3.30269596c0-.16226742.0665049-.28087252.1643062-.35777033.0762851-.07233608.1832146-.1186051.3194845-.1186051h.800015c.2627597 0 .4766186.22352499.4766186.48354387v2.21244132c0 .9749079.0462927 1.9374339-.3429567 2.859556zm-7.1740553-12.38836807c-6.11780075 0-11.07763342 4.95730224-11.07763342 11.07263347 0 6.1146795 4.95983267 11.0719817 11.07763342 11.0719817 6.1178007 0 11.0776333-4.9573022 11.0776333-11.0719817 0-6.11533123-4.9598326-11.07263347-11.0776333-11.07263347z" fill="#2b7cac"/><path d="m26.8461538 2.11h2.71c1.4 0 1.94 1.05 1.94 2.11s-.54 2.09-1.94 2.09h-2.04v2.69h-.67zm2.71.66h-2.04v2.88h1.99c.97 0 1.33-.7 1.33-1.43s-.36-1.45-1.28-1.45zm3.16 2.8c0-1.96 1.51-3.54 3.46-3.54 1.96 0 3.47 1.58 3.47 3.54 0 1.95-1.51 3.53-3.47 3.53-1.95 0-3.46-1.58-3.46-3.53zm.66 0c0 1.59 1.21 2.87 2.8 2.87s2.81-1.28 2.81-2.87-1.22-2.88-2.81-2.88-2.8 1.29-2.8 2.88zm15.14-3.46h.7l-2.33 6.89h-.63l-1.35-4.62-1.35 4.62h-.63l-2.33-6.89h.7l1.93 5.85 1.43-4.94h.5l1.43 4.94zm2.25 0h3.93v.66h-3.27v2.52h2.86v.66h-2.86v2.39h3.38v.66h-4.04zm8.55 4.2 1.9 2.69h-.81l-1.9-2.69h-1.16v2.69h-.67v-6.89h2.56c1.4 0 1.91 1.05 1.91 2.11 0 1.04-.49 2.05-1.83 2.09zm-.08-3.54h-1.89v2.88h1.84c.97 0 1.3-.7 1.3-1.43s-.33-1.45-1.25-1.45zm3.84-.66h3.93v.66h-3.27v2.52h2.86v.66h-2.86v2.39h3.38v.66h-4.04zm8.5 6.89h-2.59v-6.89h2.59c1.95 0 3.05 1.5 3.05 3.46 0 1.95-1.1 3.43-3.05 3.43zm-1.93-6.23v5.57h1.93c1.59 0 2.39-1.18 2.39-2.77s-.8-2.8-2.39-2.8zm14.16 1.05c0 .65-.21 1.28-.84 1.51.7.13 1.21.98 1.21 1.74 0 1.04-.7 1.93-1.93 1.93h-2.74v-6.89h2.51c1.11 0 1.79.66 1.79 1.71zm-3.63 1.22h1.92c.72 0 1.05-.59 1.05-1.22 0-.69-.49-1.06-1.2-1.06h-1.77zm2.02.62h-2.02v2.68h2.06c.78 0 1.28-.6 1.28-1.27 0-.63-.52-1.41-1.32-1.41zm5.96.14v3.2h-.68v-3.2l-2.59-3.69h.79l2.14 2.97 2.16-2.97h.8z" fill="#999"/></g></svg>