<svg width="18" height="18" viewBox="0 0 18 18" fill="none" xmlns="http://www.w3.org/2000/svg">
<path d="M9 0C4.03764 0 0 4.03763 0 9C0 13.9623 4.03764 18 9 18C13.9624 18 18 13.9623 18 9C18 4.03763 13.9624 0 9 0ZM9 1.38462C13.214 1.38462 16.6154 4.78595 16.6154 9C16.6154 13.214 13.214 16.6154 9 16.6154C4.78596 16.6154 1.38462 13.214 1.38462 9C1.38462 4.78595 4.78596 1.38462 9 1.38462ZM9 3.80769C8.61764 3.80769 8.30769 4.11764 8.30769 4.5V9C8.30769 9.19118 8.38795 9.36152 8.51322 9.48676C9.41108 10.3635 10.3132 11.2831 11.2067 12.1803C11.4771 12.4507 11.9099 12.4507 12.1803 12.1803C12.4506 11.9099 12.4506 11.4771 12.1803 11.2067L9.69231 8.71875V4.5C9.69231 4.11764 9.38236 3.80769 9 3.80769Z" fill="#02194B"/>
</svg>
