<svg width="20" height="20" viewBox="0 0 20 20" fill="none" xmlns="http://www.w3.org/2000/svg">
<path fill-rule="evenodd" clip-rule="evenodd" d="M10 19C14.9706 19 19 14.9706 19 10C19 5.02944 14.9706 1 10 1C5.02944 1 1 5.02944 1 10C1 14.9706 5.02944 19 10 19Z" stroke="#02194B" stroke-width="1.5"/>
<path fill-rule="evenodd" clip-rule="evenodd" d="M11.125 4.9375H8.875L9.4375 12.25H10.5625L11.125 4.9375ZM11.125 13.9375C11.125 14.5588 10.6213 15.0625 10 15.0625C9.37868 15.0625 8.875 14.5588 8.875 13.9375C8.875 13.3162 9.37868 12.8125 10 12.8125C10.6213 12.8125 11.125 13.3162 11.125 13.9375Z" fill="#02194B"/>
</svg>
